<?xml version="1.0" encoding="UTF-8"?><svg xmlns="http://www.w3.org/2000/svg" viewBox="0 0 127.2 52.35"><defs><style>.d{fill:#231f20;}</style></defs><g id="a"/><g id="b"><g id="c"><g><path class="d" d="M63.25,.26l-18.36,38.85c-.14,.3,.08,.64,.4,.64h4.53c.17,0,.33-.1,.4-.26l12.32-26.25c.21-.45,.66-.73,1.15-.73h0c.54,0,1.02,.32,1.24,.81l11.64,26.17c.07,.16,.23,.26,.41,.26h4.93c.33,0,.54-.34,.4-.63L64.05,.26c-.16-.34-.64-.34-.81,0Z"/><path class="d" d="M56.52,34.63h13.96c.18,0,.35,.23,.41,.57l.65,3.29c.12,.6-.1,1.24-.41,1.24h-15.32c-.32,0-.54-.67-.41-1.27l.71-3.29c.07-.33,.23-.54,.41-.54Z"/><path class="d" d="M28.42,6.57V.48c0-.08,.1-.15,.25-.18L30.1,.01c.26-.05,.54,.04,.54,.18V6.88c0,.14-.29,.23-.55,.18l-1.44-.31c-.14-.03-.24-.1-.24-.18Z"/><path class="d" d="M117.87,25.98v-.77c5.39-3.18,7.12-7.12,7.12-11.74,0-7.51-6.16-13.47-13.76-13.47h-19.33c-.22,0-.4,.18-.4,.4V6.8c0,.22,.18,.4,.4,.4h16.81c5.39,0,9.15,3.19,9.15,7.71,0,4.81-3.75,8.09-9.14,8.09h-16.82c-.22,0-.4,.18-.4,.4v5.84c0,.22,.18,.4,.4,.4h18.65c5.39,0,8.95,3.56,8.95,7.79,0,4.72-3.56,7.7-8.95,7.7h-24.33c-.3,.01-.5,.33-.35,.6l3.43,6.4c.07,.13,.21,.21,.35,.21h23.79c8.76,0,13.76-6.06,13.76-12.6,0-5.01-2.69-10.01-9.33-13.76Z"/><g><path class="d" d="M45.21,52.35h36.78c.29,0,.48-.3,.36-.57l-2.92-6.4c-.07-.14-.21-.23-.36-.23h-31.06c-.16,0-.3,.09-.37,.24l-2.8,6.4c-.12,.26,.08,.56,.37,.56Z"/><path class="d" d="M41.49,45.73c.14-.27-.06-.58-.36-.58h-15.46c-10.09-.47-18.13-8.77-18.13-18.97S15.39,7.88,25.31,7.24c.21-.01,.37-.18,.37-.39V.42c0-.23-.19-.42-.42-.41C10.42,.66,0,11.95,0,26.17s10.62,25.72,25.68,26.17h12.17c.15,0,.29-.08,.36-.22l3.28-6.4Z"/></g></g></g></g></svg>